<?xml version="1.0" encoding="UTF-8"?>
<svg id="Layer_1" data-name="Layer 1" xmlns="http://www.w3.org/2000/svg" viewBox="0 0 458.67 134.1">
  <defs>
    <style>
      .cls-1 {
        fill: #231f20;
      }

      .cls-2 {
        fill: #2a97d4;
      }

      .cls-3 {
        fill: #eb483c;
      }
    </style>
  </defs>
  <g>
    <path class="cls-1" d="M93.95,90.99l-.14-22.33-10.64,17.92h-7.28l-10.64-17.15v21.56h-15.05v-49h13.58l15.96,26.11,15.54-26.11h13.58l.14,49h-15.05Z"/>
    <path class="cls-1" d="M157.72,78.53v12.46h-40.74v-49h39.83v12.46h-23.59v5.74h20.72v11.9h-20.72v6.44h24.5Z"/>
    <path class="cls-1" d="M164.09,41.99h24.15c5.46,0,10.28.99,14.46,2.98,4.18,1.98,7.42,4.82,9.73,8.5,2.31,3.69,3.46,8.03,3.46,13.02s-1.16,9.33-3.46,13.02c-2.31,3.69-5.55,6.52-9.73,8.5-4.18,1.98-9,2.98-14.46,2.98h-24.15v-49ZM187.54,78.11c3.55,0,6.38-1.02,8.5-3.04,2.12-2.03,3.18-4.89,3.18-8.58s-1.06-6.54-3.18-8.58c-2.12-2.03-4.96-3.04-8.5-3.04h-6.93v23.24h6.93Z"/>
    <path class="cls-1" d="M227.79,86.02c-4.2-4.06-6.3-9.75-6.3-17.08v-11.95h16.52v11.46c0,3.59.64,6.21,1.92,7.84,1.28,1.63,3.14,2.45,5.57,2.45s4.28-.82,5.56-2.45c1.28-1.63,1.93-4.25,1.93-7.84v-11.46h16.24v11.95c0,7.33-2.1,13.02-6.3,17.08-4.2,4.06-10.06,6.09-17.57,6.09s-13.37-2.03-17.57-6.09Z"/>
    <path class="cls-1" d="M309.13,82.45h-18.62l-3.29,8.54h-16.8l21.42-49h16.24l21.42,49h-17.08l-3.29-8.54ZM304.58,70.55l-4.76-12.32-4.76,12.32h9.52Z"/>
    <path class="cls-1" d="M332.16,41.99h16.52v49h-16.52v-49Z"/>
    <path class="cls-1" d="M356.66,41.99h24.15c5.46,0,10.28.99,14.46,2.98,4.18,1.98,7.42,4.82,9.73,8.5,2.31,3.69,3.46,8.03,3.46,13.02s-1.16,9.33-3.46,13.02c-2.31,3.69-5.55,6.52-9.73,8.5-4.18,1.98-9,2.98-14.46,2.98h-24.15v-49ZM380.11,78.11c3.55,0,6.38-1.02,8.5-3.04,2.12-2.03,3.18-4.89,3.18-8.58s-1.06-6.54-3.18-8.58c-2.12-2.03-4.96-3.04-8.5-3.04h-6.93v23.24h6.93Z"/>
  </g>
  <rect class="cls-2" x="252.93" y="41.99" width="16.31" height="12.44"/>
  <rect class="cls-3" x="221.49" y="41.99" width="16.57" height="12.44"/>
</svg>